<?xml version="1.0" encoding="iso-8859-1"?>
<!-- Uploaded to: SVG Repo, www.svgrepo.com, Generator: SVG Repo Mixer Tools -->
<svg fill="#000000" height="800px" width="800px" version="1.1" id="Layer_1" xmlns="http://www.w3.org/2000/svg" xmlns:xlink="http://www.w3.org/1999/xlink" 
	 viewBox="0 0 512 512" xml:space="preserve">
<g>
	<g>
		<circle cx="331.711" cy="332.255" r="8.17"/>
	</g>
</g>
<g>
	<g>
		<circle cx="111.66" cy="190.638" r="8.17"/>
	</g>
</g>
<g>
	<g>
		<circle cx="155.234" cy="212.425" r="8.17"/>
	</g>
</g>
<g>
	<g>
		<path d="M508.942,249.626L261.112,50.818c-2.451-1.966-5.813-2.351-8.646-0.992c-2.833,1.359-4.636,4.223-4.636,7.366v57.191H8.17
			c-4.512,0-8.17,3.657-8.17,8.17v266.894c0,4.513,3.658,8.17,8.17,8.17h107.574c4.512,0,8.17-3.657,8.17-8.17
			c0-4.513-3.658-8.17-8.17-8.17H16.34V130.723H256c4.512,0,8.17-3.657,8.17-8.17V74.22L490.773,256L264.17,437.78v-48.333
			c0-4.513-3.658-8.17-8.17-8.17H148.426c-4.512,0-8.17,3.657-8.17,8.17c0,4.513,3.658,8.17,8.17,8.17h99.404v57.192
			c0,3.143,1.803,6.007,4.636,7.366c1.124,0.539,2.332,0.804,3.533,0.804c1.825,0,3.635-0.611,5.113-1.796l247.83-198.808
			c1.934-1.551,3.058-3.896,3.058-6.374C512,253.522,510.876,251.177,508.942,249.626z"/>
	</g>
</g>
</svg>